# xmcd
#
# Track frame offsets:
#	151
#	12664
#	25083
#	39598
#	51305
#	63866
#	78557
#	92314
#	109457
#	124592
#	138449
#	151474
#	164099
#	177610
#	188343
#
# Disc length: 2694 seconds
#
# Revision: 1
# Processed by: cddbd v1.4PL0 Copyright (c) Steve Scherf et al.
# Submitted via: MusicManager 7.0.3.0 
#
DISCID=c80a840f
DTITLE=Various Artist - Got The Blues CD2
DYEAR=1998
DGENRE=Blues
TTITLE0=Sonny Terry - Whoopin' the blues
TTITLE1=Sonny Boy Williamson - New early in the morning
TTITLE2=Lowell Fulson - Three o'clock blues
TTITLE3=Muddy Waters - Little Anna Mae
TTITLE4=Memphis Slim - Old taylor
TTITLE5=Tampa Red - Baby take a chance with me
TTITLE6=Roosevelt Sykes - Sunny road
TTITLE7=Jimmy Witherspoon - Skidrow blues
TTITLE8=Lonnie Johnson - He's a jelly-roll baker
TTITLE9=Big Joe Turner - Piney down blues
TTITLE10=Big Bill Broonzy - Just a dream
TTITLE11=Big Joe Williams - Baby, please don't go
TTITLE12=Leadbelly - Good morning blues
TTITLE13=Robert Johnson - Love in vain
TTITLE14=Washboard Sam - Dissatified blues
EXTD=
EXTT0=
EXTT1=
EXTT2=
EXTT3=
EXTT4=
EXTT5=
EXTT6=
EXTT7=
EXTT8=
EXTT9=
EXTT10=
EXTT11=
EXTT12=
EXTT13=
EXTT14=
PLAYORDER=
